<svg xmlns="http://www.w3.org/2000/svg" viewBox="0 0 120 120" aria-hidden="true">
  <g fill="none" stroke="#f8f8f8" stroke-linejoin="miter" stroke-width="7">
    <path d="M60 6 50 51 60 63 70 51Z"/>
    <path d="M6 60 51 50 63 60 51 70Z"/>
    <path d="M60 114 50 69 60 57 70 69Z"/>
    <path d="M114 60 69 50 57 60 69 70Z"/>
    <path d="M33 33 55 48 48 55Z"/>
    <path d="M87 33 72 55 65 48Z"/>
    <path d="M87 87 65 72 72 65Z"/>
    <path d="M33 87 48 65 55 72Z"/>
  </g>
  <g stroke="#06183a" stroke-linejoin="miter" stroke-width="3.5">
    <path fill="#06183a" d="M60 6 50 51 60 63 70 51Z"/>
    <path fill="#fbf5df" d="M6 60 51 50 63 60 51 70Z"/>
    <path fill="#fbf5df" d="M60 114 50 69 60 57 70 69Z"/>
    <path fill="#fbf5df" d="M114 60 69 50 57 60 69 70Z"/>
    <path fill="#fbf5df" d="M33 33 55 48 48 55Z"/>
    <path fill="#fbf5df" d="M87 33 72 55 65 48Z"/>
    <path fill="#fbf5df" d="M87 87 65 72 72 65Z"/>
    <path fill="#fbf5df" d="M33 87 48 65 55 72Z"/>
  </g>
</svg>
